<svg xmlns="http://www.w3.org/2000/svg" style="display:none">
	<symbol id="dashboard" viewBox="0 0 24 24"><rect x="3" y="3" width="7" height="7" rx="1"/><rect x="14" y="3" width="7" height="5" rx="1"/><rect x="14" y="12" width="7" height="9" rx="1"/><rect x="3" y="14" width="7" height="7" rx="1"/></symbol>
	<symbol id="panel-left-close" viewBox="0 0 24 24"><rect x="3" y="4" width="18" height="16" rx="2"/><path d="M9 4v16m9-11-3 3 3 3"/></symbol>
	<symbol id="panel-left-open" viewBox="0 0 24 24"><rect x="3" y="4" width="18" height="16" rx="2"/><path d="M9 4v16m3-11 3 3-3 3"/></symbol>
	<symbol id="users" viewBox="0 0 24 24"><path d="M16 21v-2a4 4 0 0 0-4-4H8a4 4 0 0 0-4 4v2"/><circle cx="10" cy="7" r="4"/><path d="M20 21v-2a4 4 0 0 0-3-3.87M16 3.13a4 4 0 0 1 0 7.75"/></symbol>
	<symbol id="calendar-check" viewBox="0 0 24 24"><path d="M8 2v4m8-4v4M3 10h18M5 4h14a2 2 0 0 1 2 2v14H3V6a2 2 0 0 1 2-2Z"/><path d="m8 16 2 2 5-5"/></symbol>
	<symbol id="list-checks" viewBox="0 0 24 24"><path d="m3 6 2 2 4-4M3 12l2 2 4-4M3 18l2 2 4-4M13 6h8m-8 6h8m-8 6h8"/></symbol>
	<symbol id="inbox" viewBox="0 0 24 24"><path d="M4 4h16l2 11v5H2v-5L4 4Z"/><path d="M2 15h6l2 3h4l2-3h6"/></symbol>
	<symbol id="calendar" viewBox="0 0 24 24"><rect x="3" y="4" width="18" height="17" rx="2"/><path d="M16 2v4M8 2v4M3 10h18"/></symbol>
	<symbol id="receipt" viewBox="0 0 24 24"><path d="M4 2v20l4-2 4 2 4-2 4 2V2l-4 2-4-2-4 2-4-2Z"/><path d="M8 9h8m-8 4h8"/></symbol>
	<symbol id="trending-up" viewBox="0 0 24 24"><path d="m22 7-8.5 8.5-5-5L2 17"/><path d="M16 7h6v6"/></symbol>
	<symbol id="wallet" viewBox="0 0 24 24"><path d="M20 8V5a2 2 0 0 0-2-2H5a3 3 0 0 0 0 6h15v12H5a3 3 0 0 1-3-3V6"/><path d="M20 12h-5a2 2 0 0 0 0 4h5v-4Z"/></symbol>
	<symbol id="chart" viewBox="0 0 24 24"><path d="M3 3v18h18"/><rect x="7" y="12" width="3" height="6" rx="1"/><rect x="13" y="8" width="3" height="10" rx="1"/><rect x="19" y="5" width="3" height="13" rx="1"/></symbol>
	<symbol id="key" viewBox="0 0 24 24"><circle cx="8" cy="15" r="5"/><path d="m21 2-9.6 9.6M15.5 7.5l3 3L21 8l-3-3"/></symbol>
	<symbol id="files" viewBox="0 0 24 24"><path d="M14 2H6a2 2 0 0 0-2 2v14m4-10V4a2 2 0 0 1 2-2h4l6 6v12a2 2 0 0 1-2 2h-8a2 2 0 0 1-2-2v-2"/><path d="M14 2v6h6"/></symbol>
	<symbol id="briefcase" viewBox="0 0 24 24"><rect x="3" y="7" width="18" height="14" rx="2"/><path d="M8 7V5a2 2 0 0 1 2-2h4a2 2 0 0 1 2 2v2m-13 5h18m-11 0v2h4v-2"/></symbol>
	<symbol id="history" viewBox="0 0 24 24"><path d="M3 12a9 9 0 1 0 3-6.7L3 8"/><path d="M3 3v5h5m4-1v5l3 2"/></symbol>
	<symbol id="bell" viewBox="0 0 24 24"><path d="M18 8a6 6 0 0 0-12 0c0 7-3 7-3 9h18c0-2-3-2-3-9m-8 13a2 2 0 0 0 4 0"/></symbol>
	<symbol id="settings" viewBox="0 0 24 24"><path d="M12 8a4 4 0 1 0 0 8 4 4 0 0 0 0-8Z"/><path d="m19.4 15 .1.1 1.4 1.1-1.4 2.5-1.7-.6a8 8 0 0 1-1.8 1l-.3 1.8h-3l-.3-1.8a8 8 0 0 1-1.8-1l-1.7.6-1.4-2.5L6.9 15a8 8 0 0 1 0-2l-1.4-1.1 1.4-2.5 1.7.6a8 8 0 0 1 1.8-1l.3-1.8h3l.3 1.8a8 8 0 0 1 1.8 1l1.7-.6 1.4 2.5-1.4 1.1a8 8 0 0 1-.1 2Z"/></symbol>
	<symbol id="search" viewBox="0 0 24 24"><circle cx="11" cy="11" r="7"/><path d="m20 20-4-4"/></symbol>
	<symbol id="filter" viewBox="0 0 24 24"><path d="M4 7h16M7 12h10m-7 5h4"/><circle cx="8" cy="7" r="2"/><circle cx="15" cy="12" r="2"/></symbol>
	<symbol id="eye" viewBox="0 0 24 24"><path d="M2 12s3.5-7 10-7 10 7 10 7-3.5 7-10 7S2 12 2 12Z"/><circle cx="12" cy="12" r="3"/></symbol>
	<symbol id="pencil" viewBox="0 0 24 24"><path d="M12 20h9"/><path d="M16.5 3.5a2.1 2.1 0 0 1 3 3L8 18l-4 1 1-4Z"/></symbol>
	<symbol id="trash" viewBox="0 0 24 24"><path d="M3 6h18m-2 0-.9 14H5.9L5 6m4 0V4h6v2m-5 4v6m4-6v6"/></symbol>
	<symbol id="plus" viewBox="0 0 24 24"><path d="M12 5v14m-7-7h14"/></symbol>
	<symbol id="chevron-down" viewBox="0 0 24 24"><path d="m6 9 6 6 6-6"/></symbol>
	<symbol id="chevron-left" viewBox="0 0 24 24"><path d="m15 18-6-6 6-6"/></symbol>
	<symbol id="chevron-right" viewBox="0 0 24 24"><path d="m9 18 6-6-6-6"/></symbol>
	<symbol id="logout" viewBox="0 0 24 24"><path d="M9 21H5a2 2 0 0 1-2-2V5a2 2 0 0 1 2-2h4m7 14 5-5-5-5m5 5H9"/></symbol>
</svg>
